<?xml version="1.0" encoding="UTF-8"?>
<svg xmlns="http://www.w3.org/2000/svg" xmlns:svg="http://www.w3.org/2000/svg" xmlns:sodipodi="http://sodipodi.sourceforge.net/DTD/sodipodi-0.dtd" xmlns:inkscape="http://www.inkscape.org/namespaces/inkscape" version="1.1" viewBox="0 0 374 373">
  <defs>
    <style>
      .cls-1 {
        fill: #334768;
      }

      .cls-2 {
        stroke: #fff;
        stroke-miterlimit: 10;
      }
    </style>
  </defs>
  <!-- Generator: Adobe Illustrator 28.6.0, SVG Export Plug-In . SVG Version: 1.2.0 Build 709)  -->
  <g>
    <g id="svg1">
      <g id="g1" inkscape:groupmode="layer" inkscape:label="Image">
        <path id="path1" class="cls-1" d="M161.7,371.3c-35.6-5.5-67.1-19.6-93.9-42.2-28.3-23.8-49.1-56-59-91.3-5.7-20.3-6.5-26.8-6.5-50.7,0-20.2.2-23.1,2.7-35,8.1-38.5,25.4-70.5,52.1-96.9C84.8,28,116.9,11.6,157.2,4c12.8-2.4,47.3-2.4,60.5,0,51.4,9.4,95.4,37.8,123.9,80,11.3,16.8,23,43.8,27.1,62.9,5.6,25.9,5.4,56.9-.5,82.4-14.2,61.4-60.1,112.4-119.8,133.3-20.5,7.2-32.9,9.3-57.1,9.7-14,.2-23.8,0-29.5-1h0ZM204.7,337.1c52.4-10.6,88.6-49.7,95.1-102.5,1.3-10.8.8-14.2-1.2-8.8-3.2,8.3-11,23.1-15.9,30-2.9,4.1-9.3,11.5-14.2,16.3-38.6,38.3-92,55.6-140.9,45.6-11.5-2.3-25.8-6.9-32.8-10.4-6.3-3.2-6.4-2.1-.3,2.5,13.6,10.3,35.2,21,50.2,25,18.8,4.9,42.5,5.8,60,2.3h0ZM105.8,270.9c-18.3-18.2-27.2-33.8-33.2-58.2-3.1-12.9-3.2-36.9,0-54.1,10.5-58.5,47.7-102.8,102.1-121.5,9.3-3.2,9.4-3.3,5.1-3.4-9.6-.1-32.4,4.4-44.5,8.9-40.5,15-72.4,45.4-87.9,83.9-1.4,3.5-3.8,11.1-5.3,17-2.5,9.7-2.8,12.3-2.8,28.6,0,14.1.4,19.7,1.8,26,8.1,35,30.5,63,63.1,79,6.1,3,11.5,5.4,12.2,5.4.7,0-4.1-5.3-10.6-11.7h0ZM209.2,270.2c7.3-2,20.8-8.2,26.8-12.3,15.6-10.7,28.5-29,33.9-47.9,3.1-10.7,3.3-34.4.4-44.3-9.1-31.2-31.7-53.1-63.6-61.7-9.9-2.7-31-2.4-41.3.5-30.1,8.5-53,31.5-61,61.2-3,11.2-3,31.7,0,42.6,8.6,31.5,32.4,55.1,62.3,61.9,4.1.9,7.9,1.9,8.5,2.1,2.6,1,28.5-.6,34-2.1h0ZM335,229.7c4.7-16.3,6-27.8,5.4-46.5-.7-20.4-2.3-28.2-9.5-46.8-12.2-31.4-41.2-59.8-71.2-69.6-17.4-5.7-39.3-7.6-56.2-4.8-10,1.7-25.8,6.2-25.8,7.4,0,.4,5.3.7,11.8.8,17.4,0,31.2,3.3,49.6,11.8,58.5,26.9,95.4,85.2,92.3,145.6-.7,14.3,0,14.8,3.7,2h0Z"/>
      </g>
      <rect class="cls-2" x="81" y="102.2" width="114.2" height="56.1"/>
    </g>
  </g>
</svg>